<svg width="61" height="61" viewBox="0 0 61 61" fill="none" xmlns="http://www.w3.org/2000/svg">
<rect width="60.8" height="60.8" rx="8" fill="#EFF3FA"/>
<path d="M43.3292 37.9125C43.3292 38.3625 43.2292 38.825 43.0167 39.275C42.8042 39.725 42.5292 40.15 42.1667 40.55C41.5542 41.225 40.8792 41.7125 40.1167 42.025C39.3667 42.3375 38.5542 42.5 37.6792 42.5C36.4042 42.5 35.0417 42.2 33.6042 41.5875C32.1667 40.975 30.7292 40.15 29.3042 39.1125C27.8667 38.0625 26.5042 36.9 25.2042 35.6125C23.9167 34.3125 22.7542 32.95 21.7167 31.525C20.6917 30.1 19.8667 28.675 19.2667 27.2625C18.6667 25.8375 18.3667 24.475 18.3667 23.175C18.3667 22.325 18.5167 21.5125 18.8167 20.7625C19.1167 20 19.5917 19.3 20.2542 18.675C21.0542 17.8875 21.9292 17.5 22.8542 17.5C23.2042 17.5 23.5542 17.575 23.8667 17.725C24.1917 17.875 24.4792 18.1 24.7042 18.425L27.6042 22.5125C27.8292 22.825 27.9917 23.1125 28.1042 23.3875C28.2167 23.65 28.2792 23.9125 28.2792 24.15C28.2792 24.45 28.1917 24.75 28.0167 25.0375C27.8542 25.325 27.6167 25.625 27.3167 25.925L26.3667 26.9125C26.2292 27.05 26.1667 27.2125 26.1667 27.4125C26.1667 27.5125 26.1792 27.6 26.2042 27.7C26.2417 27.8 26.2792 27.875 26.3042 27.95C26.5292 28.3625 26.9167 28.9 27.4667 29.55C28.0292 30.2 28.6292 30.8625 29.2792 31.525C29.9542 32.1875 30.6042 32.8 31.2667 33.3625C31.9167 33.9125 32.4542 34.2875 32.8792 34.5125C32.9417 34.5375 33.0167 34.575 33.1042 34.6125C33.2042 34.65 33.3042 34.6625 33.4167 34.6625C33.6292 34.6625 33.7917 34.5875 33.9292 34.45L34.8792 33.5125C35.1917 33.2 35.4917 32.9625 35.7792 32.8125C36.0667 32.6375 36.3542 32.55 36.6667 32.55C36.9042 32.55 37.1542 32.6 37.4292 32.7125C37.7042 32.825 37.9917 32.9875 38.3042 33.2L42.4417 36.1375C42.7667 36.3625 42.9917 36.625 43.1292 36.9375C43.2542 37.25 43.3292 37.5625 43.3292 37.9125Z" stroke="#A7A7A7" stroke-width="1.5" stroke-miterlimit="10"/>
<path d="M38.9917 26.25C38.9917 25.5 38.4042 24.35 37.5292 23.4125C36.7292 22.55 35.6667 21.875 34.6167 21.875" stroke="#A7A7A7" stroke-width="1.5" stroke-linecap="round" stroke-linejoin="round"/>
<path d="M43.3667 26.25C43.3667 21.4125 39.4542 17.5 34.6167 17.5" stroke="#A7A7A7" stroke-width="1.5" stroke-linecap="round" stroke-linejoin="round"/>
</svg>
